PathFileType	4	(X/Y/Z)
DataRate	CameraRate	NumFrames	NumMarkers	Units	OrigDataRate	OrigDataStartFrame	OrigNumFrames	
  100.0	  100.0	    6	     56	     mm	  100.0	      238	    317
Frame#	Time	LASI			RASI			LPSI			RPSI			RTH1			RTH2			RTH3			RLFC			RMFC			LTH1			LTH2			LTH3			LLFC			LMFC			RTB1			RTB2			RTB3			RLMAL			RMMAL			LTB1			LTB2			LTB3			LMMAL			LLMAL			RCAL			RTOE			RMT5			LCAL			LTOE			LMT5			LACR			RACR			CLAV			C7			LASH			LPSH			RASH			RPSH			RUA1			RUA2			RUA3			RLEL			RMEL			LUA1			LUA2			LUA3			LLEL			LMEL			RFAsuperior			RFAradius			RFAulna			LFAsuperior			LFAradius			LFAulna			RHJC			LHJC			
		X1	Y1	Z1	X2	Y2	Z2	X3	Y3	Z3	X4	Y4	Z4	X5	Y5	Z5	X6	Y6	Z6	X7	Y7	Z7	X8	Y8	Z8	X9	Y9	Z9	X10	Y10	Z10	X11	Y11	Z11	X12	Y12	Z12	X13	Y13	Z13	X14	Y14	Z14	X15	Y15	Z15	X16	Y16	Z16	X17	Y17	Z17	X18	Y18	Z18	X19	Y19	Z19	X20	Y20	Z20	X21	Y21	Z21	X22	Y22	Z22	X23	Y23	Z23	X24	Y24	Z24	X25	Y25	Z25	X26	Y26	Z26	X27	Y27	Z27	X28	Y28	Z28	X29	Y29	Z29	X30	Y30	Z30	X31	Y31	Z31	X32	Y32	Z32	X33	Y33	Z33	X34	Y34	Z34	X35	Y35	Z35	X36	Y36	Z36	X37	Y37	Z37	X38	Y38	Z38	X39	Y39	Z39	X40	Y40	Z40	X41	Y41	Z41	X42	Y42	Z42	X43	Y43	Z43	X44	Y44	Z44	X45	Y45	Z45	X46	Y46	Z46	X47	Y47	Z47	X48	Y48	Z48	X49	Y49	Z49	X50	Y50	Z50	X51	Y51	Z51	X52	Y52	Z52	X53	Y53	Z53	X54	Y54	Z54	X55	Y55	Z55	X56	Y56	Z56	

310	3.10000	767.82030	1031.74832	-411.70522	508.96487	1034.17537	-429.59650	699.19935	1086.56391	-586.36421	604.93164	1085.18494	-597.12334	439.97569	871.91190	-496.89897	430.93230	771.41697	-467.15998	435.34448	638.07899	-541.23086	429.76308	520.31846	-521.82344	546.26724	512.41436	-493.66421	838.86470	896.58444	-509.52238	848.20700	766.63174	-459.17632	844.05282	652.61913	-545.75151	848.85369	492.40200	-550.12300	734.19169	474.25092	-527.94254	450.98815	369.17451	-490.79711	401.83940	277.07785	-551.19693	448.18479	194.13877	-519.39784	399.62439	122.58176	-578.17148	486.60731	128.73828	-540.93114	828.63488	364.79334	-510.74734	870.19835	313.18975	-559.18161	835.18683	226.74437	-528.65619	789.09586	133.82558	-542.51068	874.27704	127.27823	-579.19678	455.02710	104.28732	-642.10231	422.86340	78.43182	-407.95187	351.81969	58.79232	-437.39441	803.18881	103.51854	-640.36860	860.98097	77.46340	-403.32396	934.51527	58.69854	-454.87978	786.33686	1573.68117	-523.21339	477.12207	1556.62543	-552.00272	593.50837	1510.29694	-464.89154	634.53102	1577.56949	-581.77767	758.69550	1525.63190	-446.30522	819.83984	1504.02871	-582.91083	505.38901	1512.28918	-479.84593	453.42916	1503.32546	-607.56762	344.42507	1519.94757	-535.86942	320.65571	1468.27077	-562.32805	264.17270	1493.09901	-512.10947	184.13537	1483.47541	-483.44965	206.74117	1395.41696	-479.29865	908.53487	1521.82219	-513.68361	941.84350	1440.50443	-523.92373	1006.63312	1474.13430	-464.30386	1071.82995	1454.53441	-435.96103	1039.47359	1369.31630	-425.14065	194.26184	1502.45302	-393.49917	197.41238	1484.81392	-209.90756	129.60308	1500.47467	-229.60653	1076.94934	1474.77593	-347.12217	1041.15178	1460.85852	-164.32997	1112.80680	1465.05368	-168.87991	548.25942	946.56976	-509.67598	750.00616	934.19000	-494.47871	
311	3.11000	767.85963	1031.72030	-411.63810	509.01874	1034.15394	-429.57581	699.25313	1086.57977	-586.30772	604.99839	1085.20039	-597.08083	440.04762	871.89541	-496.88230	431.00968	771.41266	-467.10914	435.31132	638.00815	-541.15246	429.80875	520.29310	-521.76605	546.31231	512.38134	-493.63992	838.93417	896.59374	-509.46435	848.29132	766.62883	-459.16794	844.09062	652.62878	-545.74027	848.88320	492.40719	-550.09475	734.23726	474.28075	-527.89896	451.00153	369.17137	-490.77846	401.85647	277.05416	-551.18732	448.19789	194.13491	-519.39630	399.62285	122.58227	-578.16746	486.62042	128.73833	-540.93492	828.66123	364.78519	-510.73497	870.23250	313.19198	-559.15802	835.24540	226.72245	-528.70301	789.10166	133.83246	-542.49662	874.19340	127.22356	-579.01640	455.01470	104.26896	-642.07061	422.86632	78.42690	-407.94942	351.82084	58.79165	-437.38683	803.17064	103.50311	-640.32016	860.98330	77.45764	-403.31919	934.51968	58.70101	-454.88261	786.35012	1573.69221	-523.09964	477.07602	1556.66937	-552.25411	593.53324	1510.28237	-464.79145	634.54877	1577.58746	-581.65258	758.72966	1525.65965	-446.16096	819.88327	1504.05255	-582.80657	505.39670	1512.33661	-479.58119	453.42907	1503.34875	-607.40927	344.45981	1519.92700	-535.77058	320.65832	1468.24841	-562.17963	264.19095	1493.05678	-511.95171	184.11134	1483.38158	-483.26696	206.78183	1395.36726	-479.19096	908.58870	1521.80450	-513.64318	941.88916	1440.55389	-523.83908	1006.65939	1474.17924	-464.12328	1071.86568	1454.56158	-435.81374	1039.49855	1369.35709	-425.01579	194.25865	1502.38276	-393.33376	197.44926	1484.65905	-209.77260	129.62807	1500.31457	-229.38879	1076.95418	1474.78441	-347.01325	1041.13884	1460.87755	-164.08691	1112.79602	1465.01882	-168.74902	548.31533	946.56352	-509.66111	750.06123	934.18460	-494.44984	
312	3.12000	767.89737	1031.70391	-411.50537	509.07216	1034.13237	-429.56694	699.32599	1086.59732	-586.27278	605.07892	1085.21329	-597.04149	440.12348	871.87697	-496.84727	431.10420	771.41306	-467.08045	435.33043	637.95824	-541.14509	429.81348	520.28655	-521.68713	546.35826	512.34854	-493.61262	839.01755	896.61002	-509.41574	848.38767	766.63385	-459.16711	844.13582	652.63856	-545.72213	848.92587	492.41619	-550.07078	734.28266	474.31407	-527.85168	451.01240	369.16636	-490.76564	401.86890	277.03532	-551.16755	448.20775	194.12825	-519.39799	399.62451	122.58586	-578.16369	486.63702	128.73937	-540.94757	828.68691	364.77886	-510.71758	870.28027	313.19813	-559.14965	835.26486	226.71606	-528.71556	789.10830	133.84001	-542.49266	874.14041	127.19013	-578.90013	454.95963	104.20570	-641.96130	422.86620	78.42033	-407.94666	351.82935	58.78829	-437.39189	803.16521	103.50437	-640.31614	860.99167	77.46344	-403.32869	934.52872	58.69889	-454.86345	786.38397	1573.69587	-523.00954	477.04175	1556.70042	-552.42289	593.58461	1510.29340	-464.69399	634.58337	1577.59769	-581.53066	758.75533	1525.68721	-446.01381	819.93627	1504.07324	-582.71063	505.38310	1512.34454	-479.32638	453.44722	1503.33764	-607.28542	344.50286	1519.91807	-535.67456	320.68347	1468.22137	-562.05366	264.21386	1493.00868	-511.78731	184.09095	1483.31880	-483.09221	206.82217	1395.31848	-479.09946	908.64162	1521.78994	-513.62067	941.93734	1440.59271	-523.77313	1006.68869	1474.22947	-463.96535	1071.90002	1454.61103	-435.67980	1039.52254	1369.39282	-424.90357	194.26088	1502.31638	-393.15062	197.49834	1484.50773	-209.62330	129.65562	1500.13790	-229.20644	1076.96971	1474.80887	-346.90463	1041.14320	1460.90951	-163.87409	1112.78890	1465.00234	-168.61742	548.38942	946.54844	-509.63218	750.13417	934.19106	-494.38240	
313	3.13000	767.94077	1031.69757	-411.34161	509.12640	1034.11301	-429.56272	699.41911	1086.61572	-586.25447	605.16884	1085.22229	-597.00494	440.20411	871.85858	-496.79025	431.20837	771.40916	-467.07551	435.43352	637.96791	-541.23922	429.73578	520.33401	-521.57182	546.40493	512.32461	-493.59166	839.10967	896.62959	-509.38045	848.48978	766.64436	-459.15736	844.18550	652.64934	-545.68165	848.97852	492.42384	-550.04714	734.32392	474.33761	-527.81355	451.02677	369.16116	-490.74932	401.87579	277.04564	-551.12123	448.21481	194.11963	-519.40056	399.63056	122.59298	-578.16317	486.65303	128.73980	-540.95558	828.71036	364.77322	-510.69372	870.33280	313.20468	-559.15475	835.26079	226.71672	-528.70399	789.11562	133.84669	-542.49532	874.14359	127.19383	-578.89816	454.92277	104.16002	-641.87529	422.86245	78.41423	-407.94324	351.83834	58.78224	-437.39825	803.18184	103.52623	-640.36296	861.00028	77.46640	-403.33204	934.53871	58.69360	-454.83765	786.42937	1573.70182	-522.92842	477.05428	1556.70443	-552.35678	593.64375	1510.33523	-464.55370	634.62891	1577.60133	-581.40741	758.77137	1525.71247	-445.86999	819.99185	1504.09936	-582.61229	505.35187	1512.27840	-479.14856	453.48546	1503.30858	-607.18702	344.54894	1519.94112	-535.57016	320.73165	1468.19104	-561.94528	264.24410	1492.96056	-511.61960	184.09149	1483.29572	-482.94454	206.85660	1395.27261	-479.01571	908.67374	1521.81521	-513.52483	941.98953	1440.62522	-523.71035	1006.72187	1474.28070	-463.83511	1071.93266	1454.67378	-435.56402	1039.55197	1369.42510	-424.79872	194.28958	1502.26052	-392.97751	197.55255	1484.38054	-209.46381	129.70559	1499.98808	-229.09442	1076.99973	1474.84901	-346.77762	1041.16261	1460.92226	-163.74197	1112.79166	1464.99559	-168.49281	548.47752	946.53003	-509.59585	750.22062	934.20439	-494.29196	
314	3.14000	767.99522	1031.68978	-411.20821	509.18879	1034.09721	-429.55438	699.52193	1086.63366	-586.24048	605.26734	1085.22810	-596.97684	440.29410	871.85765	-496.72862	431.31353	771.40031	-467.06479	435.58472	638.03085	-541.35791	429.66844	520.39218	-521.45839	546.45238	512.30640	-493.57444	839.20456	896.64524	-509.35711	848.59114	766.65689	-459.12248	844.24261	652.66311	-545.61810	849.03463	492.42550	-550.01521	734.36469	474.34944	-527.78383	451.04681	369.15616	-490.72713	401.88736	277.07323	-551.07394	448.22214	194.11478	-519.39633	399.63565	122.59908	-578.16668	486.66535	128.73909	-540.95248	828.73457	364.76828	-510.66500	870.37941	313.20814	-559.15917	835.25079	226.71035	-528.68856	789.12221	133.85116	-542.49694	874.16947	127.21326	-578.94072	454.96039	104.18530	-641.90531	422.85651	78.41194	-407.94093	351.84406	58.77832	-437.39317	803.20795	103.55052	-640.40901	861.00468	77.45555	-403.31180	934.54713	58.68862	-454.81833	786.46817	1573.71531	-522.83394	477.10907	1556.68247	-552.08523	593.67814	1510.38493	-464.36029	634.67319	1577.60388	-581.28272	758.78373	1525.73290	-445.73651	820.04024	1504.13380	-582.51106	505.33267	1512.17170	-479.08020	453.53461	1503.29062	-607.08988	344.59337	1519.99841	-535.44965	320.79513	1468.16611	-561.84691	264.28367	1492.93189	-511.45596	184.11719	1483.29482	-482.82657	206.89245	1395.23193	-478.93533	908.68292	1521.88305	-513.33847	942.04565	1440.65991	-523.63924	1006.75805	1474.32917	-463.72096	1071.96304	1454.73820	-435.45176	1039.58712	1369.45616	-424.71237	194.34495	1502.22145	-392.82978	197.60608	1484.28588	-209.30212	129.77885	1499.88322	-229.01503	1077.03905	1474.89412	-346.63922	1041.19414	1460.90634	-163.68892	1112.80426	1465.00987	-168.35604	548.56885	946.51707	-509.56879	750.30968	934.21199	-494.21416	
315	3.15000	768.05946	1031.67132	-411.13844	509.26292	1034.08700	-429.53762	699.61986	1086.65036	-586.22019	605.37243	1085.23264	-596.96125	440.39564	871.88856	-496.68820	431.41659	771.39665	-467.02124	435.70979	638.09990	-541.38492	429.80975	520.34920	-521.43558	546.49966	512.28485	-493.54791	839.29552	896.65320	-509.33760	848.68652	766.66864	-459.06337	844.31179	652.67917	-545.54642	849.09108	492.42180	-549.97173	734.41107	474.35809	-527.75516	451.07152	369.15123	-490.70483	401.90783	277.08739	-551.06084	448.23424	194.11961	-519.37971	399.63825	122.60243	-578.16831	486.67376	128.73712	-540.94227	828.76427	364.76768	-510.63445	870.41616	313.20837	-559.15285	835.25125	226.70138	-528.68203	789.12626	133.85543	-542.49525	874.18258	127.22493	-578.95367	455.03981	104.25254	-642.00497	422.85142	78.41632	-407.94299	351.84970	58.78252	-437.37795	803.22298	103.55781	-640.40253	861.00718	77.43805	-403.28279	934.55362	58.68821	-454.81305	786.48980	1573.73392	-522.70920	477.17972	1556.64802	-551.72995	593.67386	1510.40683	-464.17168	634.70623	1577.61007	-581.16114	758.79934	1525.74778	-445.61449	820.07393	1504.17491	-582.40548	505.35029	1512.09811	-479.08022	453.57538	1503.30081	-606.96926	344.62446	1520.05411	-535.30450	320.86020	1468.15500	-561.74919	264.32950	1492.93271	-511.30234	184.16093	1483.29001	-482.71504	206.93735	1395.19901	-478.84891	908.68489	1521.96283	-513.13019	942.09948	1440.70238	-523.54996	1006.79384	1474.37399	-463.61244	1071.98919	1454.80030	-435.33350	1039.62450	1369.48766	-424.65488	194.40232	1502.19456	-392.70155	197.65769	1484.21500	-209.14826	129.84919	1499.81257	-228.89919	1077.07698	1474.93358	-346.51000	1041.23376	1460.88208	-163.66307	1112.82697	1465.04876	-168.20696	548.65276	946.51519	-509.55918	750.39088	934.20592	-494.17151	
